<svg xmlns="http://www.w3.org/2000/svg" version="1.1" xmlns:xlink="http://www.w3.org/1999/xlink" viewBox="0 0 200 200" width="200" height="200"><rect width="200" height="200" fill="url('#gradient')"></rect><defs><linearGradient id="gradient" gradientTransform="rotate(230 0.5 0.5)"><stop offset="0%" stop-color="#3c4845"></stop><stop offset="100%" stop-color="#1b7974"></stop></linearGradient></defs><g><g fill="#3df383" transform="matrix(6.123588039867109,0,0,6.123588039867109,3.4295329447996608,143.53808664752796)" stroke="#c2d02d" stroke-width="0.2"><path d="M12.95-14.22L12.95 0L9.54 0L4.50-8.85L4.50 0L1.07 0L1.07-14.22L4.50-14.22L9.53-5.37L9.53-14.22L12.95-14.22ZM15.12-14.22L19.62-14.22L22.79-4.33L25.96-14.22L30.47-14.22L30.47 0L27.03 0L27.03-3.32L27.36-10.12L23.93 0L21.66 0L18.21-10.13L18.54-3.32L18.54 0L15.12 0L15.12-14.22Z"></path></g></g></svg>